<?xml version="1.0" standalone="no"?>
<!DOCTYPE svg PUBLIC "-//W3C//DTD SVG 20010904//EN"
 "http://www.w3.org/TR/2001/REC-SVG-20010904/DTD/svg10.dtd">
<svg version="1.0" xmlns="http://www.w3.org/2000/svg"
 width="1024.000000pt" height="1024.000000pt" viewBox="0 0 1024.000000 1024.000000"
 preserveAspectRatio="xMidYMid meet">
<metadata>
Created by potrace 1.11, written by Peter Selinger 2001-2013
</metadata>
<g transform="translate(0.000000,1024.000000) scale(0.100000,-0.100000)"
fill="#000000" stroke="none">
<path d="M4715 10229 c-1056 -84 -2065 -498 -2895 -1190 -160 -133 -486 -459
-619 -619 -699 -839 -1108 -1842 -1191 -2919 -13 -173 -13 -589 0 -762 83
-1077 492 -2080 1191 -2919 133 -160 459 -486 619 -619 839 -699 1842 -1108
2919 -1191 173 -13 589 -13 762 0 1077 83 2080 492 2919 1191 160 133 486 459
619 619 699 839 1108 1842 1191 2919 13 173 13 589 0 762 -83 1077 -492 2080
-1191 2919 -133 160 -459 486 -619 619 -839 699 -1842 1108 -2919 1191 -158
12 -627 11 -786 -1z m-338 -3027 c23 -12 53 -36 66 -54 14 -18 370 -906 792
-1973 742 -1876 767 -1942 767 -2007 1 -129 -54 -183 -174 -171 l-67 6 -30 76
c-23 61 -1611 4077 -1628 4117 -15 39 201 43 274 6z m-2180 -500 c7 -5 264
-672 571 -1483 569 -1500 639 -1680 673 -1735 35 -57 162 -121 291 -147 56
-11 63 -16 70 -42 5 -17 6 -49 3 -72 l-6 -41 -57 4 c-258 18 -562 22 -837 10
-165 -7 -304 -10 -308 -6 -4 4 -7 36 -5 70 l3 64 70 12 c110 18 153 33 186 62
25 22 31 37 36 84 12 122 -19 254 -144 598 -136 378 -152 417 -170 424 -63 24
-1006 12 -1088 -14 -28 -9 -36 -26 -148 -312 -131 -338 -171 -457 -191 -570
-30 -173 10 -217 239 -263 l110 -22 3 -71 3 -71 -48 4 c-174 17 -576 25 -743
16 -102 -6 -214 -12 -250 -13 l-64 -3 -9 38 c-5 21 -6 52 -3 70 6 33 7 33 84
44 109 16 190 48 232 93 44 46 108 157 172 300 58 130 982 2502 1040 2669 52
153 87 219 142 269 39 36 52 42 88 42 24 0 49 -4 55 -8z m4445 -13 c216 -11
618 -3 855 18 l72 6 6 -36 c4 -20 3 -53 -2 -74 l-8 -37 -76 -12 c-88 -15 -151
-40 -196 -78 -44 -37 -55 -81 -38 -153 22 -92 117 -365 230 -658 149 -388 639
-1600 659 -1630 21 -32 52 -30 77 5 27 37 821 1959 864 2091 47 145 55 240 26
287 -41 64 -170 126 -288 138 -37 4 -71 12 -75 18 -12 17 -9 95 3 118 10 18
17 19 87 14 286 -23 485 -26 746 -11 148 8 271 13 273 11 9 -9 15 -78 9 -109
-6 -34 -7 -34 -74 -40 -168 -16 -220 -58 -325 -264 -105 -206 -124 -252 -728
-1696 -297 -709 -547 -1303 -556 -1320 -25 -50 -52 -80 -91 -104 -44 -27 -83
-29 -104 -5 -9 9 -276 672 -593 1472 -317 800 -598 1502 -624 1560 -63 142
-125 244 -165 275 -43 33 -131 63 -231 78 l-80 13 -3 49 c-2 27 0 60 3 73 6
23 9 24 63 18 31 -3 159 -11 284 -17z"/>
<path d="M2037 5983 c-3 -4 -107 -273 -232 -597 -162 -419 -224 -591 -216
-599 14 -14 461 -22 695 -12 172 7 176 8 182 30 4 15 -65 214 -206 601 -117
319 -213 580 -215 582 -2 2 -5 0 -8 -5z"/>
</g>
</svg>
